<svg width="340" height="41" viewBox="0 0 340 41" fill="none" xmlns="http://www.w3.org/2000/svg">
<path d="M238.977 39.2045V20.3113C238.977 14.0315 235.382 10.7207 230.15 10.1629C224.952 9.60512 221.914 11.6204 220.108 14.4094V1.40004C220.108 1.22011 219.973 1.07617 219.805 1.07617H214.353C214.185 1.07617 214.05 1.22011 214.05 1.40004V11.6924V21.6428V39.2045C214.05 39.3845 214.185 39.5284 214.353 39.5284H219.805C219.973 39.5284 220.108 39.3845 220.108 39.2045V20.7611C220.108 17.0724 222.775 13.9236 226.218 13.7616C229.897 13.5817 232.935 16.4067 232.935 20.5812V39.2045C232.935 39.3845 233.07 39.5284 233.239 39.5284H238.69C238.859 39.5284 238.994 39.3845 238.994 39.2045H238.977Z" fill="#203B7B"/>
<path d="M279.55 39.204V20.7786C279.55 17.0539 281.997 13.8691 285.373 13.7431C288.124 13.6352 290.503 15.4885 291.415 18.1335C291.465 18.2775 291.6 18.3855 291.735 18.3855H297.17C297.355 18.3855 297.507 18.1875 297.474 17.9896C296.663 13.8691 293.643 10.7202 289.119 10.1444C284.073 9.49663 281.288 11.5479 279.533 14.3369V11.278C279.533 11.0981 279.415 10.9541 279.246 10.9541H273.795C273.626 10.9541 273.491 11.0981 273.491 11.278V39.222C273.491 39.4019 273.626 39.5459 273.795 39.5459H279.246C279.415 39.5459 279.55 39.4019 279.55 39.222V39.204Z" fill="#203B7B"/>
<path d="M188.953 39.2043V25.943H198.016C206.201 25.943 209.678 20.1851 209.678 12.7358C209.678 11.2423 209.189 1.68774 199.771 0.266254C196.919 -0.165592 194.691 0.284242 192.953 1.07596C191.535 1.70573 190.438 2.60541 189.544 3.66703C189.341 3.90095 189.139 4.15284 188.953 4.40475C188.953 4.40475 188.936 4.42275 188.919 4.44074V1.59776C188.919 1.29187 188.7 1.05795 188.413 1.05795H183.4C183.114 1.05795 182.894 1.29187 182.894 1.59776V39.1863C182.894 39.3662 183.029 39.5102 183.198 39.5102H188.649C188.818 39.5102 188.953 39.3662 188.953 39.1863V39.2043ZM188.953 10.4866C189.156 6.95984 191.839 3.88295 195.518 3.88295C203.299 3.88295 203.636 11.8721 203.619 13.5455C203.586 17.9719 201.645 23.19 195.805 23.19H188.953V10.4866Z" fill="#203B7B"/>
<path d="M262.082 36.1986V39.1315C262.082 39.3115 262.217 39.4554 262.385 39.4554H267.837C268.005 39.4554 268.14 39.3115 268.14 39.1315V19.0507C268.14 15.2541 266.824 11.8173 261.997 10.5218C260.529 10.1259 253.643 9.83803 251.213 10.3598C247.196 11.2235 244.479 13.9046 244.327 17.9891C244.327 18.187 244.462 18.349 244.647 18.349H250.065C250.217 18.349 250.335 18.241 250.352 18.097C250.554 16.6936 251.871 12.699 256.242 12.717C259.179 12.717 262.082 14.9662 262.082 18.6549V20.5982H252.04C245.542 20.5982 243.213 24.9706 243.213 30.3147C243.213 35.6588 246.386 39.9772 252.04 40.4631C257.255 40.8949 260.276 39.0056 262.082 36.2166V36.1986ZM255.668 23.1892C257.272 23.1892 262.082 23.1892 262.082 23.1892V29.7389C262.082 33.3196 259.634 36.5045 256.293 36.8283C252.462 37.2062 249.255 34.0214 249.255 30.0268C249.255 26.2481 251.179 23.2252 255.668 23.1892Z" fill="#203B7B"/>
<path d="M339.784 39.204V19.681C339.784 13.3113 334.974 10.6662 332.156 10.2344C327.042 9.44268 323.11 12.4836 321.388 15.3985C320.105 12.6995 317.861 10.6482 314.384 10.1444C309.675 9.46067 306.908 11.6019 305.254 14.3729V11.26C305.27 11.0801 305.135 10.9361 304.984 10.9361H299.515C299.347 10.9361 299.212 11.0801 299.212 11.26V39.204C299.212 39.384 299.347 39.5279 299.515 39.5279H304.967C305.135 39.5279 305.27 39.402 305.27 39.222C305.27 34.7236 305.186 25.169 305.27 20.4907C305.338 16.892 307.802 13.8691 310.874 13.7431C313 13.6532 316.477 15.6325 316.477 20.1488V39.222C316.477 39.402 316.612 39.5459 316.781 39.5459H322.232C322.401 39.5459 322.536 39.4199 322.536 39.24C322.536 34.7416 322.451 25.1871 322.536 20.5087C322.603 16.91 324.814 13.8871 327.903 13.7612C330.029 13.6712 333.742 15.3266 333.742 20.4907V39.222C333.742 39.402 333.877 39.5459 334.046 39.5459H339.497C339.666 39.5459 339.801 39.402 339.801 39.222L339.784 39.204Z" fill="#203B7B"/>
<path d="M60.4508 39.1143L50.4764 24.8454L59.877 11.4042C59.9951 11.2243 59.877 10.9724 59.6744 10.9724H53.2611C53.2611 10.9724 53.1092 11.0084 53.0586 11.0804L46.966 19.8073L40.8733 11.0804C40.8733 11.0804 40.7552 10.9724 40.6708 10.9724H34.5444C34.3419 10.9724 34.2237 11.2243 34.3419 11.4042L43.4893 24.7914L33.4643 39.1323C33.3461 39.3122 33.4643 39.5642 33.6668 39.5642H40.0801C40.0801 39.5642 40.232 39.5282 40.2826 39.4562L46.966 29.9016L53.5143 39.4562C53.5143 39.4562 53.6324 39.5642 53.7168 39.5642H60.2651C60.4677 39.5642 60.5858 39.3122 60.4677 39.1323L60.4508 39.1143Z" fill="#203B7B"/>
<path d="M69.5144 10.9724H64.0631C63.8953 10.9724 63.7593 11.1174 63.7593 11.2963V39.2223C63.7593 39.4012 63.8953 39.5462 64.0631 39.5462H69.5144C69.6821 39.5462 69.8182 39.4012 69.8182 39.2223V11.2963C69.8182 11.1174 69.6821 10.9724 69.5144 10.9724Z" fill="#203B7B"/>
<path d="M107.403 0.5354H107.369C105.542 0.5354 104.061 2.11439 104.061 4.06215V4.09812C104.061 6.04588 105.542 7.62487 107.369 7.62487H107.403C109.23 7.62487 110.711 6.04588 110.711 4.09812V4.06215C110.711 2.11439 109.23 0.5354 107.403 0.5354Z" fill="#203B7B"/>
<path d="M66.7961 0.5354H66.7624C64.9355 0.5354 63.4545 2.11439 63.4545 4.06215V4.09812C63.4545 6.04588 64.9355 7.62487 66.7624 7.62487H66.7961C68.623 7.62487 70.1041 6.04588 70.1041 4.09812V4.06215C70.1041 2.11439 68.623 0.5354 66.7961 0.5354Z" fill="#203B7B"/>
<path d="M110.12 10.9724H104.669C104.501 10.9724 104.365 11.1174 104.365 11.2963V39.2223C104.365 39.4012 104.501 39.5462 104.669 39.5462H110.12C110.288 39.5462 110.424 39.4012 110.424 39.2223V11.2963C110.424 11.1174 110.288 10.9724 110.12 10.9724Z" fill="#203B7B"/>
<path d="M32.469 39.0782C32.469 39.0782 22.6296 10.5584 19.423 1.30972C19.3723 1.18376 19.2711 1.11182 19.1361 1.11182H13.4316C13.3134 1.11182 13.1953 1.20178 13.1447 1.32773L0.0986443 39.0962C0.0311358 39.3121 0.166163 39.528 0.385565 39.528H5.80312C5.92126 39.528 6.0394 39.4381 6.09003 39.3121L10.7144 25.9249H21.887L26.5114 39.3121C26.562 39.4381 26.6632 39.528 26.7983 39.528H32.1989C32.4015 39.528 32.5534 39.2941 32.4859 39.0962L32.469 39.0782ZM11.592 23.2079L16.2838 9.7487L20.9757 23.2079H11.592Z" fill="#203B7B"/>
<path d="M90.1884 39.3487C92.7875 32.4392 98.3063 17.9903 100.787 11.3867C100.872 11.1708 100.72 10.9548 100.5 10.9548H95.0997C94.9815 10.9548 94.8802 11.0268 94.8296 11.1348C92.99 15.8671 87.083 30.7658 87.083 30.7658C87.083 30.7658 81.176 15.8671 79.3364 11.1348C79.2858 11.0088 79.1845 10.9548 79.0664 10.9548H73.6657C73.4463 10.9548 73.3113 11.1708 73.3788 11.3867C75.8597 17.9903 81.4123 32.4392 84.0114 39.3487C84.062 39.4746 84.1633 39.5466 84.2814 39.5466H89.9184C90.0365 39.5466 90.1546 39.4746 90.1884 39.3487Z" fill="#203B7B"/>
<path d="M137.698 32.9778C137.698 32.2581 137.698 30.3867 137.698 29.631C137.698 29.4511 137.563 29.3071 137.394 29.3071C137.394 29.3071 133.31 29.3071 131.993 29.3071C131.808 29.3071 131.639 29.4511 131.639 29.631C131.639 30.4767 131.639 32.3121 131.639 32.9778C131.639 36.2347 129.31 38.124 126.964 38.124C123.842 38.124 122.255 35.335 122.255 31.9522C122.255 28.1556 122.255 19.8785 122.255 13.7427H133.208C133.377 13.7427 133.512 13.5988 133.512 13.4188V11.2776C133.512 11.0977 133.377 10.9537 133.208 10.9537H122.255V6.59926C122.255 6.41933 122.12 6.27539 121.951 6.27539H116.5C116.331 6.27539 116.196 6.41933 116.196 6.59926V31.5923C116.196 35.389 117.091 38.7718 121.935 40.0493C122.728 40.2652 124.905 40.6971 126.93 40.7151C128.28 40.7151 129.917 40.4092 131.2 40.1033C132.787 39.7254 137.596 37.8181 137.681 32.9598L137.698 32.9778Z" fill="#203B7B"/>
<path d="M159.317 36.2345V39.1674C159.317 39.3474 159.452 39.4913 159.621 39.4913H165.072C165.241 39.4913 165.376 39.3474 165.376 39.1674V19.0866C165.376 15.29 164.059 11.8532 159.232 10.5577C157.764 10.1618 150.878 9.87391 148.448 10.3957C144.431 11.2594 141.714 13.9405 141.562 18.025C141.562 18.2229 141.697 18.3849 141.883 18.3849H147.3C147.452 18.3849 147.57 18.2769 147.587 18.133C147.79 16.7295 149.106 12.7349 153.477 12.7529C156.414 12.7529 159.317 15.0021 159.317 18.6908V20.6341H149.275C142.777 20.6341 140.448 25.0065 140.448 30.3506C140.448 35.6947 143.621 40.0131 149.275 40.499C154.49 40.9308 157.511 39.0415 159.317 36.2525V36.2345ZM152.904 23.2251C154.507 23.2251 159.317 23.2251 159.317 23.2251V29.7748C159.317 33.3555 156.87 36.5404 153.528 36.8643C149.697 37.2421 146.49 34.0573 146.49 30.0627C146.49 26.284 148.414 23.2611 152.904 23.2251Z" fill="#203B7B"/>
</svg>
