<svg width="432" height="179" viewBox="0 0 432 179" fill="none" xmlns="http://www.w3.org/2000/svg">
<g clip-path="url(#clip0_1_1100)">
<path d="M214.709 176.394V138.716C214.709 126.205 207.035 119.601 195.847 118.477C184.73 117.37 178.24 121.386 174.385 126.937V101.003C174.385 100.646 174.098 100.361 173.739 100.361H162.085C161.726 100.361 161.439 100.646 161.439 101.003V121.529V141.376V176.394C161.439 176.751 161.726 177.037 162.085 177.037H173.739C174.098 177.037 174.385 176.751 174.385 176.394V139.627C174.385 132.291 180.068 125.973 187.438 125.652C195.309 125.295 201.781 130.917 201.781 139.27V176.412C201.781 176.769 202.068 177.054 202.427 177.054H214.081C214.44 177.054 214.727 176.769 214.727 176.412L214.709 176.394Z" fill="#203B7B"/>
<path d="M301.399 176.394V139.645C301.399 132.238 306.617 125.848 313.825 125.598C319.706 125.384 324.78 129.096 326.734 134.379C326.842 134.665 327.111 134.879 327.433 134.879H339.052C339.464 134.879 339.769 134.504 339.697 134.112C337.976 125.884 331.503 119.619 321.857 118.459C311.081 117.156 305.129 121.261 301.381 126.812V120.69C301.399 120.333 301.113 120.047 300.754 120.047H289.1C288.741 120.047 288.454 120.333 288.454 120.69V176.412C288.454 176.769 288.741 177.055 289.1 177.055H300.754C301.113 177.055 301.399 176.769 301.399 176.412V176.394Z" fill="#203B7B"/>
<path d="M107.865 176.394V149.961H127.23C144.711 149.961 152.134 138.467 152.134 123.617C152.134 120.636 151.094 101.592 130.977 98.7543C124.899 97.8976 120.129 98.8079 116.4 100.361C113.388 101.61 111.021 103.431 109.12 105.537C108.69 106.019 108.278 106.518 107.883 107.018C107.865 107.054 107.847 107.072 107.812 107.107V101.449C107.829 100.843 107.345 100.361 106.736 100.361H96.0317C95.44 100.361 94.938 100.843 94.938 101.449V176.394C94.938 176.751 95.2249 177.037 95.5835 177.037H107.238C107.596 177.037 107.883 176.751 107.883 176.394H107.865ZM107.865 119.101C108.296 112.051 114.051 105.911 121.904 105.911C138.507 105.911 139.242 121.85 139.225 125.205C139.153 134.04 135.011 144.446 122.532 144.446H107.883V119.119L107.865 119.101Z" fill="#203B7B"/>
<path d="M264.088 170.397V176.251C264.088 176.608 264.374 176.894 264.733 176.894H276.387C276.746 176.894 277.033 176.608 277.033 176.251V136.182C277.033 128.597 274.236 121.743 263.908 119.173C260.771 118.387 246.068 117.798 240.868 118.851C232.298 120.583 226.489 125.919 226.166 134.076C226.166 134.469 226.471 134.79 226.865 134.79H238.43C238.735 134.79 239.004 134.576 239.058 134.272C239.488 131.47 242.303 123.528 251.644 123.546C257.92 123.546 264.123 128.025 264.123 135.379V139.252C264.123 139.252 248.022 139.252 242.661 139.252C228.784 139.252 223.799 147.962 223.799 158.617C223.799 169.291 230.595 177.893 242.661 178.857C253.796 179.732 260.268 175.948 264.123 170.397H264.088ZM250.389 144.428C253.814 144.392 264.088 144.428 264.088 144.428V157.493C264.088 164.614 258.852 170.968 251.716 171.629C243.54 172.396 236.691 166.024 236.691 158.064C236.691 150.514 240.779 144.499 250.389 144.428Z" fill="#203B7B"/>
<path d="M430.046 176.394V137.467C430.046 124.759 419.79 119.512 413.747 118.619C402.828 117.031 394.419 123.117 390.744 128.936C388 123.546 383.195 119.458 375.79 118.441C365.714 117.067 359.815 121.332 356.3 126.865L356.354 120.672C356.354 120.315 356.067 120.029 355.709 120.029H344.019C343.66 120.029 343.373 120.315 343.373 120.672V176.394C343.373 176.751 343.66 177.037 344.019 177.037H355.673C356.031 177.037 356.318 176.769 356.318 176.412C356.3 167.434 356.139 148.372 356.318 139.074C356.462 131.916 361.715 125.866 368.295 125.616C372.85 125.437 380.273 129.4 380.273 138.377V176.394C380.273 176.751 380.559 177.037 380.918 177.037H392.572C392.931 177.037 393.218 176.769 393.218 176.412C393.2 167.434 393.039 148.372 393.218 139.074C393.361 131.916 398.095 125.866 404.675 125.616C409.229 125.437 417.154 128.722 417.154 139.038V176.412C417.154 176.769 417.441 177.055 417.8 177.055H429.454C429.813 177.055 430.099 176.769 430.099 176.412L430.046 176.394Z" fill="#203B7B"/>
<path d="M132.788 76.9438L111.469 48.4758L131.551 21.6678C131.82 21.3108 131.551 20.811 131.12 20.811H117.422C117.243 20.811 117.081 20.9003 116.992 21.0252L103.957 38.4272L90.9219 21.0252C90.8143 20.8824 90.6529 20.811 90.4916 20.811H77.4028C76.9546 20.811 76.7036 21.3108 76.9725 21.6678L96.5339 48.3509L75.1257 76.9438C74.8568 77.3007 75.1257 77.8005 75.5561 77.8005H89.2544C89.4337 77.8005 89.5951 77.7112 89.6847 77.5863L103.975 58.5065L117.942 77.5684C118.05 77.7112 118.211 77.7826 118.372 77.7826H132.358C132.806 77.7826 133.057 77.2829 132.788 76.9259V76.9438Z" fill="#203B7B"/>
<path d="M152.134 20.811H140.498C140.141 20.811 139.852 21.0987 139.852 21.4536V77.1579C139.852 77.5128 140.141 77.8005 140.498 77.8005H152.134C152.49 77.8005 152.779 77.5128 152.779 77.1579V21.4536C152.779 21.0987 152.49 20.811 152.134 20.811Z" fill="#203B7B"/>
<path d="M233.069 0H233.033C229.122 0 225.951 3.15642 225.951 7.05006V7.08575C225.951 10.9794 229.122 14.1358 233.033 14.1358H233.069C236.98 14.1358 240.151 10.9794 240.151 7.08575V7.05006C240.151 3.15642 236.98 0 233.069 0Z" fill="#203B7B"/>
<path d="M146.325 0H146.289C142.377 0 139.207 3.15642 139.207 7.05006V7.08575C139.207 10.9794 142.377 14.1358 146.289 14.1358H146.325C150.236 14.1358 153.407 10.9794 153.407 7.08575V7.05006C153.407 3.15642 150.236 0 146.325 0Z" fill="#203B7B"/>
<path d="M238.86 20.811H227.224C226.867 20.811 226.578 21.0987 226.578 21.4536V77.1579C226.578 77.5128 226.867 77.8005 227.224 77.8005H238.86C239.217 77.8005 239.505 77.5128 239.505 77.1579V21.4536C239.505 21.0987 239.217 20.811 238.86 20.811Z" fill="#203B7B"/>
<path d="M73.0098 76.8724C73.0098 76.8724 51.9782 19.9901 45.129 1.55284C45.0394 1.30297 44.8063 1.14233 44.5373 1.14233H32.3451C32.0761 1.14233 31.8431 1.30297 31.7355 1.55284L3.85468 76.8903C3.69331 77.3008 4.01605 77.747 4.46429 77.747H16.029C16.2979 77.747 16.531 77.5863 16.6386 77.3365L26.5179 50.6355H50.4004L60.2797 77.3365C60.3693 77.5863 60.6203 77.747 60.8893 77.747H72.4361C72.8843 77.7291 73.1891 77.2829 73.0277 76.8724H73.0098ZM28.4185 45.2275L38.4412 18.3837L48.464 45.2275H28.4185Z" fill="#203B7B"/>
<path d="M196.331 77.4257C201.871 63.6647 213.687 34.8219 218.958 21.6678C219.119 21.2572 218.815 20.811 218.348 20.811H206.802C206.551 20.811 206.317 20.9538 206.21 21.1858C202.283 30.6097 189.661 60.327 189.661 60.327C189.661 60.327 177.02 30.6097 173.112 21.1858C173.004 20.9538 172.789 20.811 172.52 20.811H160.973C160.525 20.811 160.202 21.2572 160.363 21.6678C165.653 34.8398 177.522 63.6647 183.063 77.4257C183.152 77.6755 183.385 77.8183 183.654 77.8183H195.703C195.972 77.8183 196.187 77.6755 196.295 77.4257H196.331Z" fill="#203B7B"/>
<path d="M297.796 64.7177C297.831 63.272 297.796 59.5417 297.796 58.0425C297.796 57.6855 297.509 57.4178 297.15 57.4178C297.15 57.4178 288.436 57.4178 285.621 57.4178C285.227 57.4178 284.868 57.7034 284.868 58.0425C284.868 59.7381 284.85 63.3969 284.868 64.7177C284.868 71.1966 279.884 74.9983 274.881 74.9983C268.211 74.9983 264.823 69.4296 264.823 62.683C264.823 55.1154 264.823 38.5879 264.823 26.344H288.203C288.562 26.344 288.849 26.0584 288.849 25.7015V21.4536C288.849 21.0966 288.562 20.811 288.203 20.811H264.823V12.1368C264.823 11.7798 264.536 11.4943 264.177 11.4943H252.523C252.164 11.4943 251.877 11.7798 251.877 12.1368V21.1502V26.3261V61.9691C251.877 69.5546 253.796 76.2834 264.123 78.8535C265.827 79.2819 270.453 80.1564 274.792 80.1743C277.678 80.1743 281.175 79.5675 283.918 78.9606C287.307 78.211 297.58 74.4272 297.76 64.6999L297.796 64.7177Z" fill="#203B7B"/>
<path d="M343.964 71.1966V77.0508C343.964 77.4078 344.251 77.6934 344.61 77.6934H356.264C356.623 77.6934 356.91 77.4078 356.91 77.0508V36.9815C356.91 29.396 354.113 22.5423 343.785 19.9721C340.647 19.1868 325.945 18.5978 320.745 19.6509C312.175 21.3822 306.366 26.7188 306.043 34.8754C306.043 35.2681 306.348 35.5894 306.742 35.5894H318.307C318.612 35.5894 318.881 35.3752 318.935 35.0718C319.365 32.2696 322.18 24.3271 331.521 24.345C337.797 24.345 344 28.8249 344 36.1784V40.0514C344 40.0514 327.899 40.0514 322.538 40.0514C308.661 40.0514 303.676 48.7614 303.676 59.4168C303.676 70.09 310.472 78.6929 322.538 79.6567C333.673 80.5312 340.145 76.7474 344 71.1966H343.964ZM330.266 45.2274C333.691 45.1917 343.964 45.2274 343.964 45.2274V58.2923C343.964 65.4138 338.729 71.7677 331.593 72.4281C323.417 73.1956 316.568 66.8238 316.568 58.8635C316.568 51.3137 320.656 45.2988 330.266 45.2274Z" fill="#203B7B"/>
<path d="M32.7217 162.598C32.7217 171.575 25.3884 178.875 16.3518 178.875C7.33314 178.875 -0.0180664 171.575 -0.0180664 162.598C-0.0180664 153.62 7.31521 146.302 16.3518 146.302C25.3705 146.302 32.7217 153.602 32.7217 162.598Z" fill="#63BEAD"/>
<path d="M432 17.0987C432 26.0763 424.666 33.3763 415.63 33.3763C406.611 33.3763 399.26 26.0763 399.26 17.0987C399.26 8.121 406.593 0.803223 415.63 0.803223C424.648 0.803223 432 8.10315 432 17.0987Z" fill="#63BEAD"/>
</g>
<defs>
<clipPath id="clip0_1_1100">
<rect width="432" height="179" fill="white"/>
</clipPath>
</defs>
</svg>
