<svg width="537" height="118" viewBox="0 0 537 118" fill="none" xmlns="http://www.w3.org/2000/svg">
<path d="M423.21 74.2884V54.8876C423.21 48.4392 419.185 45.0394 413.328 44.4666C407.508 43.8938 404.107 45.9632 402.086 48.8272V35.4683C402.086 35.2835 401.935 35.1357 401.746 35.1357H395.643C395.454 35.1357 395.303 35.2835 395.303 35.4683V46.0371V56.2549V74.2884C395.303 74.4732 395.454 74.621 395.643 74.621H401.746C401.935 74.621 402.086 74.4732 402.086 74.2884V55.3495C402.086 51.5618 405.071 48.3283 408.925 48.162C413.044 47.9772 416.445 50.8781 416.445 55.1648V74.2884C416.445 74.4732 416.597 74.621 416.785 74.621H422.888C423.077 74.621 423.228 74.4732 423.228 74.2884H423.21Z" fill="#63BEAD"/>
<path d="M468.632 74.2899V55.3695C468.632 51.5448 471.372 48.2744 475.151 48.145C478.23 48.0342 480.894 49.9373 481.915 52.6534C481.971 52.8012 482.123 52.9121 482.274 52.9121H488.358C488.565 52.9121 488.736 52.7088 488.698 52.5056C487.791 48.2744 484.409 45.0409 479.345 44.4496C473.696 43.7845 470.578 45.8908 468.613 48.7548V45.6137C468.613 45.4289 468.481 45.2811 468.292 45.2811H462.189C462 45.2811 461.849 45.4289 461.849 45.6137V74.3084C461.849 74.4932 462 74.641 462.189 74.641H468.292C468.481 74.641 468.632 74.4932 468.632 74.3084V74.2899Z" fill="#63BEAD"/>
<path d="M367.207 74.2901V60.6725H377.353C386.517 60.6725 390.409 54.7599 390.409 47.1104C390.409 45.5768 389.861 35.7656 379.318 34.3059C376.125 33.8625 373.631 34.3244 371.685 35.1374C370.098 35.7841 368.87 36.7079 367.868 37.7981C367.642 38.0383 367.415 38.2969 367.207 38.5556C367.207 38.5556 367.188 38.5741 367.169 38.5926V35.6732C367.169 35.3591 366.924 35.1189 366.602 35.1189H360.991C360.67 35.1189 360.424 35.3591 360.424 35.6732V74.2716C360.424 74.4563 360.575 74.6042 360.764 74.6042H366.867C367.056 74.6042 367.207 74.4563 367.207 74.2716V74.2901ZM367.207 44.8008C367.434 41.1793 370.438 38.0198 374.557 38.0198C383.267 38.0198 383.645 46.2235 383.626 47.9419C383.588 52.4872 381.416 57.8455 374.878 57.8455H367.207V44.8008Z" fill="#63BEAD"/>
<path d="M449.076 71.2041V74.2158C449.076 74.4006 449.227 74.5484 449.416 74.5484H455.519C455.708 74.5484 455.859 74.4006 455.859 74.2158V53.5955C455.859 49.6969 454.385 46.1678 448.981 44.8374C447.338 44.4309 439.629 44.1353 436.908 44.6711C432.411 45.558 429.369 48.3111 429.199 52.5054C429.199 52.7086 429.35 52.8749 429.558 52.8749H435.623C435.793 52.8749 435.925 52.764 435.944 52.6162C436.171 51.175 437.645 47.0731 442.538 47.0916C445.826 47.0916 449.076 49.4012 449.076 53.189V55.1845H437.834C430.559 55.1845 427.952 59.6744 427.952 65.1621C427.952 70.6497 431.504 75.0842 437.834 75.5831C443.672 76.0265 447.054 74.0865 449.076 71.2225V71.2041ZM441.896 57.8452C443.691 57.8452 449.076 57.8452 449.076 57.8452V64.5708C449.076 68.2477 446.336 71.5182 442.595 71.8507C438.306 72.2388 434.716 68.9683 434.716 64.8665C434.716 60.9863 436.87 57.8822 441.896 57.8452Z" fill="#63BEAD"/>
<path d="M536.065 74.2904V54.2429C536.065 47.7021 530.68 44.986 527.525 44.5425C521.8 43.7295 517.397 46.8521 515.47 49.8454C514.034 47.0738 511.521 44.9675 507.629 44.4501C502.358 43.748 499.259 45.9468 497.407 48.7922V45.5957C497.426 45.4109 497.275 45.2631 497.105 45.2631H490.983C490.794 45.2631 490.643 45.4109 490.643 45.5957V74.2904C490.643 74.4752 490.794 74.623 490.983 74.623H497.086C497.275 74.623 497.426 74.4937 497.426 74.3089C497.426 69.6897 497.332 59.8784 497.426 55.0744C497.502 51.379 500.26 48.2749 503.699 48.1455C506.08 48.0531 509.972 50.0856 509.972 54.7233V74.3089C509.972 74.4937 510.123 74.6415 510.312 74.6415H516.415C516.604 74.6415 516.755 74.5121 516.755 74.3274C516.755 69.7081 516.661 59.8969 516.755 55.0929C516.831 51.3975 519.306 48.2933 522.763 48.164C525.144 48.0716 529.301 49.7715 529.301 55.0744V74.3089C529.301 74.4937 529.452 74.6415 529.641 74.6415H535.744C535.933 74.6415 536.084 74.4937 536.084 74.3089L536.065 74.2904Z" fill="#63BEAD"/>
<path d="M223.346 74.1978L212.18 59.5455L222.704 45.7432C222.836 45.5585 222.704 45.2998 222.477 45.2998H215.297C215.297 45.2998 215.127 45.3368 215.07 45.4107L208.25 54.372L201.429 45.4107C201.429 45.4107 201.296 45.2998 201.202 45.2998H194.343C194.117 45.2998 193.984 45.5585 194.117 45.7432L204.357 59.4901L193.134 74.2162C193.002 74.401 193.134 74.6597 193.361 74.6597H200.541C200.541 74.6597 200.711 74.6227 200.767 74.5488L208.25 64.7376L215.581 74.5488C215.581 74.5488 215.713 74.6597 215.807 74.6597H223.138C223.365 74.6597 223.497 74.401 223.365 74.2162L223.346 74.1978Z" fill="#63BEAD"/>
<path d="M233.493 45.2998H227.39C227.202 45.2998 227.05 45.4487 227.05 45.6324V74.3086C227.05 74.4923 227.202 74.6412 227.39 74.6412H233.493C233.68 74.6412 233.833 74.4923 233.833 74.3086V45.6324C233.833 45.4487 233.68 45.2998 233.493 45.2998Z" fill="#63BEAD"/>
<path d="M275.91 34.583H275.872C273.827 34.583 272.169 36.2044 272.169 38.2045V38.2414C272.169 40.2415 273.827 41.8629 275.872 41.8629H275.91C277.955 41.8629 279.613 40.2415 279.613 38.2414V38.2045C279.613 36.2044 277.955 34.583 275.91 34.583Z" fill="#63BEAD"/>
<path d="M230.45 34.583H230.412C228.367 34.583 226.709 36.2044 226.709 38.2045V38.2414C226.709 40.2415 228.367 41.8629 230.412 41.8629H230.45C232.495 41.8629 234.153 40.2415 234.153 38.2414V38.2045C234.153 36.2044 232.495 34.583 230.45 34.583Z" fill="#63BEAD"/>
<path d="M278.952 45.2998H272.849C272.661 45.2998 272.509 45.4487 272.509 45.6324V74.3086C272.509 74.4923 272.661 74.6412 272.849 74.6412H278.952C279.14 74.6412 279.292 74.4923 279.292 74.3086V45.6324C279.292 45.4487 279.14 45.2998 278.952 45.2998Z" fill="#63BEAD"/>
<path d="M192.02 74.1612C192.02 74.1612 181.004 44.8752 177.415 35.378C177.358 35.2487 177.245 35.1748 177.093 35.1748H170.707C170.575 35.1748 170.443 35.2672 170.386 35.3965L155.781 74.1796C155.705 74.4014 155.856 74.6231 156.102 74.6231H162.167C162.299 74.6231 162.431 74.5307 162.488 74.4014L167.665 60.6545H180.173L185.35 74.4014C185.407 74.5307 185.52 74.6231 185.671 74.6231H191.718C191.944 74.6231 192.114 74.3829 192.039 74.1796L192.02 74.1612ZM168.648 57.8645L173.9 44.0437L179.153 57.8645H168.648Z" fill="#63BEAD"/>
<path d="M256.638 74.4389C259.547 67.3437 265.726 52.5067 268.503 45.7257C268.598 45.504 268.428 45.2822 268.182 45.2822H262.136C262.004 45.2822 261.89 45.3561 261.834 45.467C259.774 50.3264 253.161 65.6254 253.161 65.6254C253.161 65.6254 246.548 50.3264 244.489 45.467C244.432 45.3377 244.319 45.2822 244.186 45.2822H238.14C237.895 45.2822 237.743 45.504 237.819 45.7257C240.597 52.5067 246.813 67.3437 249.722 74.4389C249.779 74.5682 249.892 74.6421 250.025 74.6421H256.335C256.468 74.6421 256.6 74.5682 256.638 74.4389Z" fill="#63BEAD"/>
<path d="M309.825 67.8973C309.825 67.1583 309.825 65.2367 309.825 64.4606C309.825 64.2759 309.674 64.1281 309.485 64.1281C309.485 64.1281 304.913 64.1281 303.439 64.1281C303.231 64.1281 303.042 64.2759 303.042 64.4606C303.042 65.329 303.042 67.2137 303.042 67.8973C303.042 71.2417 300.435 73.1818 297.809 73.1818C294.313 73.1818 292.537 70.3178 292.537 66.8442C292.537 62.9455 292.537 54.4461 292.537 48.1455H304.8C304.989 48.1455 305.14 47.9977 305.14 47.8129V45.6141C305.14 45.4294 304.989 45.2815 304.8 45.2815H292.537V40.8101C292.537 40.6253 292.386 40.4775 292.197 40.4775H286.094C285.905 40.4775 285.754 40.6253 285.754 40.8101V66.4746C285.754 70.3732 286.756 73.8469 292.178 75.1588C293.066 75.3805 295.504 75.824 297.771 75.8424C299.282 75.8424 301.115 75.5283 302.551 75.2142C304.327 74.8262 309.712 72.8677 309.807 67.8789L309.825 67.8973Z" fill="#63BEAD"/>
<path d="M334.028 71.2412V74.2529C334.028 74.4377 334.18 74.5855 334.369 74.5855H340.471C340.66 74.5855 340.812 74.4377 340.812 74.2529V53.6326C340.812 49.734 339.338 46.2049 333.934 44.8746C332.29 44.4681 324.581 44.1724 321.861 44.7082C317.364 45.5951 314.322 48.3482 314.152 52.5425C314.152 52.7457 314.303 52.912 314.511 52.912H320.576C320.746 52.912 320.878 52.8012 320.897 52.6533C321.124 51.2121 322.597 47.1102 327.491 47.1287C330.779 47.1287 334.028 49.4383 334.028 53.2261V55.2216H322.786C315.512 55.2216 312.905 59.7116 312.905 65.1992C312.905 70.6869 316.457 75.1213 322.786 75.6202C328.625 76.0637 332.007 74.1236 334.028 71.2597V71.2412ZM326.849 57.8823C328.644 57.8823 334.028 57.8823 334.028 57.8823V64.6079C334.028 68.2849 331.289 71.5553 327.548 71.8879C323.259 72.2759 319.669 69.0055 319.669 64.9036C319.669 61.0234 321.823 57.9193 326.849 57.8823Z" fill="#63BEAD"/>
<path d="M138.813 58.8979L104.501 0.769331C104.388 0.584561 104.199 0.492188 103.991 0.492188H35.3671C35.1593 0.492188 34.9704 0.603038 34.857 0.769331L0.544985 58.8979C0.43162 59.0826 0.43162 59.2859 0.544985 59.4706L34.857 117.599C34.9704 117.784 35.1593 117.876 35.3671 117.876H103.991C104.199 117.876 104.388 117.765 104.501 117.599L138.813 59.4706C138.927 59.2859 138.927 59.0826 138.813 58.8979ZM99.7966 110.781H39.5428C39.3349 110.781 39.146 110.67 39.0326 110.504L8.91515 59.4706C8.80179 59.2859 8.80179 59.0826 8.91515 58.8979L39.0326 7.86448C39.146 7.67971 39.3349 7.58733 39.5428 7.58733H99.7966C100.004 7.58733 100.193 7.69818 100.307 7.86448L130.424 58.8979C130.538 59.0826 130.538 59.2859 130.424 59.4706L100.307 110.504C100.193 110.689 100.004 110.781 99.7966 110.781Z" fill="#63BEAD"/>
<path d="M106.466 69.6693C110.245 69.6693 113.778 67.6738 115.668 64.4772C118.634 59.4885 116.915 53.04 111.851 50.1207C110.226 49.1968 108.375 48.6979 106.504 48.6979C105.484 48.6979 104.463 48.8642 103.519 49.1414L93.996 33.011C94.3172 32.6599 94.6006 32.2904 94.8462 31.8839C96.8868 28.4287 95.6965 23.9758 92.201 21.9618C91.0674 21.3151 89.8015 20.9825 88.4978 20.9825C85.8903 20.9825 83.4341 22.3498 82.1304 24.567C81.9414 24.8811 81.8092 25.1952 81.6769 25.5093H61.0066C60.3075 22.9226 58.6259 20.6129 56.0941 19.1533C54.4692 18.2294 52.5986 17.749 50.747 17.749C46.9681 17.749 43.4349 19.7261 41.5266 22.941C38.9381 27.3201 39.9395 32.7893 43.6238 36.0412L34.1578 52.0792C33.6854 51.9868 33.2131 51.9314 32.7407 51.9314C30.1333 51.9314 27.6771 53.2987 26.3734 55.5159C24.3139 58.9711 25.5042 63.4241 29.0186 65.4381C30.1522 66.0847 31.4181 66.4173 32.7218 66.4173C33.2131 66.4173 33.7043 66.3619 34.1767 66.2695L44.1529 83.1575C43.1326 83.952 42.2446 84.9313 41.5644 86.0583C38.598 91.0471 40.3362 97.4956 45.3999 100.415C47.0248 101.339 48.8764 101.838 50.747 101.838C54.5258 101.838 58.0591 99.8422 59.9485 96.6456C60.6665 95.4446 61.1011 94.1513 61.29 92.8394H81.3179C81.7147 94.798 82.9239 96.5717 84.8134 97.6619C85.947 98.3086 87.2129 98.6412 88.5167 98.6412C91.143 98.6412 93.5803 97.2554 94.9029 95.0382C96.6601 92.0818 96.0177 88.3864 93.5992 86.1322L103.575 69.2258C104.539 69.503 105.522 69.6508 106.523 69.6508L106.466 69.6693ZM91.0296 84.6171C90.2171 84.3215 89.3669 84.1552 88.4978 84.1552C85.8903 84.1552 83.4341 85.5225 82.1304 87.7398C81.7147 88.4419 81.4313 89.1994 81.2801 89.957H61.2522C60.8176 86.8713 59.0227 83.9889 56.0941 82.3075C54.4692 81.3837 52.5986 80.9033 50.747 80.9033C49.3299 80.9033 47.9317 81.1804 46.6658 81.6978L36.8975 65.1424C37.7855 64.5512 38.5413 63.7751 39.0892 62.8328C41.0353 59.5439 40.0339 55.3496 36.8975 53.2248L46.0801 37.6487C47.5161 38.3324 49.1032 38.7204 50.6903 38.7204C54.4692 38.7204 58.0024 36.7248 59.8918 33.5283C60.8554 31.9208 61.3089 30.1655 61.3467 28.4287H81.129C81.1857 30.8677 82.4894 33.2142 84.7567 34.5261C85.8904 35.1728 87.1563 35.5054 88.46 35.5054C89.5747 35.5054 90.6517 35.2467 91.6153 34.7848L100.817 50.3608C99.3998 51.2477 98.1716 52.4303 97.2836 53.9084C94.3739 58.8048 95.9799 65.0685 100.798 68.0618L91.0107 84.6356L91.0296 84.6171Z" fill="#63BEAD"/>
</svg>
